<?xml version="1.0" encoding="UTF-8" standalone="no"?><svg xmlns="http://www.w3.org/2000/svg" xmlns:xlink="http://www.w3.org/1999/xlink" contentStyleType="text/css" height="1234.8px" preserveAspectRatio="none" style="width:448px;height:1234px;background:#FFFFFF;" version="1.1" viewBox="0 0 448 1234" width="448.2px" zoomAndPan="magnify"><defs/><g><text fill="#000000" font-family="sans-serif" font-size="8.4" font-weight="bold" lengthAdjust="spacing" textLength="62.4" x="192" y="21.0645">N Arity Handler</text><ellipse cx="215.55" cy="35.7727" fill="#222222" rx="6" ry="6" style="stroke:#222222;stroke-width:0.6;"/><rect fill="#F1F1F1" height="21.5766" rx="7.5" ry="7.5" style="stroke:#181818;stroke-width:0.3;" width="116.4" x="157.35" y="53.7727"/><text fill="#000000" font-family="sans-serif" font-size="7.2" lengthAdjust="spacing" textLength="104.4" x="163.35" y="67.5422">Create Claim Log (id i, seqno c)</text><polygon fill="#F1F1F1" points="155.55,124.9277,275.55,124.9277,282.75,132.1277,275.55,139.3277,155.55,139.3277,148.35,132.1277,155.55,124.9277" style="stroke:#181818;stroke-width:0.3;"/><text fill="#000000" font-family="sans-serif" font-size="6.6" lengthAdjust="spacing" textLength="120" x="155.55" y="134.8605">Log has Id i and is another Claim or Partial</text><text fill="#000000" font-family="sans-serif" font-size="6.6" lengthAdjust="spacing" textLength="11.4" x="136.95" y="130.4713">true</text><text fill="#000000" font-family="sans-serif" font-size="6.6" lengthAdjust="spacing" textLength="14.4" x="282.75" y="130.4713">false</text><rect fill="#FFFF00" height="21.5766" rx="7.5" ry="7.5" style="stroke:#181818;stroke-width:0.3;" width="151.2" x="27" y="145.3277"/><text fill="#000000" font-family="sans-serif" font-size="7.2" lengthAdjust="spacing" textLength="139.2" x="33" y="159.0973">Exit Handler (another Handler in progress)</text><ellipse cx="102.6" cy="194.5043" fill="none" rx="6.6" ry="6.6" style="stroke:#222222;stroke-width:0.6;"/><ellipse cx="102.6" cy="194.5043" fill="#222222" rx="3.6" ry="3.6" style="stroke:#111111;stroke-width:0.6;"/><rect fill="#FF0000" height="21.5766" rx="7.5" ry="7.5" style="stroke:#181818;stroke-width:0.3;" width="44.4" x="306.3" y="204.5063"/><text fill="#000000" font-family="sans-serif" font-size="7.2" lengthAdjust="spacing" textLength="32.4" x="312.3" y="218.2758">Fire Node</text><ellipse cx="328.5" cy="249.1945" fill="none" rx="6.6" ry="6.6" style="stroke:#222222;stroke-width:0.6;"/><ellipse cx="328.5" cy="249.1945" fill="#222222" rx="3.6" ry="3.6" style="stroke:#111111;stroke-width:0.6;"/><polygon fill="#F1F1F1" points="301.2,174.917,355.8,174.917,363,182.117,355.8,189.317,301.2,189.317,294,182.117,301.2,174.917" style="stroke:#181818;stroke-width:0.3;"/><text fill="#000000" font-family="sans-serif" font-size="6.6" lengthAdjust="spacing" textLength="11.4" x="330.9" y="196.4391">true</text><text fill="#000000" font-family="sans-serif" font-size="6.6" lengthAdjust="spacing" textLength="54.6" x="301.2" y="184.8498">Node has all inputs</text><rect fill="#F1F1F1" height="21.5766" rx="7.5" ry="7.5" style="stroke:#181818;stroke-width:0.3;" width="117" x="270" y="280.9945"/><text fill="#000000" font-family="sans-serif" font-size="7.2" lengthAdjust="spacing" textLength="105" x="276" y="294.7641">Create Partial Log (id i, seqno y)</text><rect fill="#F1F1F1" height="21.5766" rx="7.5" ry="7.5" style="stroke:#181818;stroke-width:0.3;" width="40.8" x="308.1" y="340.9711"/><text fill="#000000" font-family="sans-serif" font-size="7.2" lengthAdjust="spacing" textLength="28.8" x="314.1" y="354.7406">set: p = y</text><rect fill="#F1F1F1" height="21.5766" rx="7.5" ry="7.5" style="stroke:#181818;stroke-width:0.3;" width="48.6" x="304.2" y="374.5477"/><text fill="#000000" font-family="sans-serif" font-size="7.2" lengthAdjust="spacing" textLength="36.6" x="310.2" y="388.3172">set: f = y - 1</text><rect fill="#F1F1F1" height="21.5766" rx="7.5" ry="7.5" style="stroke:#181818;stroke-width:0.3;" width="57.6" x="299.7" y="408.1242"/><text fill="#000000" font-family="sans-serif" font-size="7.2" lengthAdjust="spacing" textLength="45.6" x="305.7" y="421.8938">set: y = invalid</text><rect fill="#F1F1F1" height="21.5766" rx="7.5" ry="7.5" style="stroke:#181818;stroke-width:0.3;" width="79.2" x="288.9" y="476.1229"/><text fill="#000000" font-family="sans-serif" font-size="7.2" lengthAdjust="spacing" textLength="67.2" x="294.9" y="489.8924">Get Log with seqno f</text><rect fill="#FF0000" height="21.5766" rx="7.5" ry="7.5" style="stroke:#181818;stroke-width:0.3;" width="44.4" x="306.3" y="568.8779"/><text fill="#000000" font-family="sans-serif" font-size="7.2" lengthAdjust="spacing" textLength="32.4" x="312.3" y="582.6475">Fire Node</text><ellipse cx="328.5" cy="618.0545" fill="none" rx="6.6" ry="6.6" style="stroke:#222222;stroke-width:0.6;"/><ellipse cx="328.5" cy="618.0545" fill="#222222" rx="3.6" ry="3.6" style="stroke:#111111;stroke-width:0.6;"/><polygon fill="#F1F1F1" points="301.2,539.2887,355.8,539.2887,363,546.4887,355.8,553.6887,301.2,553.6887,294,546.4887,301.2,539.2887" style="stroke:#181818;stroke-width:0.3;"/><text fill="#000000" font-family="sans-serif" font-size="6.6" lengthAdjust="spacing" textLength="11.4" x="330.9" y="560.8107">true</text><text fill="#000000" font-family="sans-serif" font-size="6.6" lengthAdjust="spacing" textLength="54.6" x="301.2" y="549.2215">Node has all inputs</text><rect fill="#F1F1F1" height="21.5766" rx="7.5" ry="7.5" style="stroke:#181818;stroke-width:0.3;" width="117" x="270" y="649.8545"/><text fill="#000000" font-family="sans-serif" font-size="7.2" lengthAdjust="spacing" textLength="105" x="276" y="663.624">Create Partial Log (id i, seqno y)</text><polygon fill="#F1F1F1" points="292.2,509.6994,364.8,509.6994,372,516.8994,364.8,524.0994,292.2,524.0994,285,516.8994,292.2,509.6994" style="stroke:#181818;stroke-width:0.3;"/><text fill="#000000" font-family="sans-serif" font-size="6.6" lengthAdjust="spacing" textLength="11.4" x="330.9" y="531.2215">true</text><text fill="#000000" font-family="sans-serif" font-size="6.6" lengthAdjust="spacing" textLength="72.6" x="292.2" y="519.6322">Log has Id i and is CLAIM</text><polygon fill="#F1F1F1" points="328.5,683.4311,335.7,690.6311,328.5,697.8311,321.3,690.6311,328.5,683.4311" style="stroke:#181818;stroke-width:0.3;"/><rect fill="#F1F1F1" height="21.5766" rx="7.5" ry="7.5" style="stroke:#181818;stroke-width:0.3;" width="33.6" x="311.7" y="709.8311"/><text fill="#000000" font-family="sans-serif" font-size="7.2" lengthAdjust="spacing" textLength="21.6" x="317.7" y="723.6006">f = f - 1</text><polygon fill="#F1F1F1" points="321.3,441.7008,335.7,441.7008,342.9,448.9008,335.7,456.1008,321.3,456.1008,314.1,448.9008,321.3,441.7008" style="stroke:#181818;stroke-width:0.3;"/><text fill="#000000" font-family="sans-serif" font-size="6.6" lengthAdjust="spacing" textLength="11.4" x="330.9" y="463.2229">true</text><text fill="#000000" font-family="sans-serif" font-size="6.6" lengthAdjust="spacing" textLength="13.2" x="321.9" y="451.6336">f &gt; c</text><text fill="#000000" font-family="sans-serif" font-size="6.6" lengthAdjust="spacing" textLength="14.4" x="299.7" y="447.2443">false</text><rect fill="#F1F1F1" height="21.5766" rx="7.5" ry="7.5" style="stroke:#181818;stroke-width:0.3;" width="27.6" x="314.7" y="756.6076"/><text fill="#000000" font-family="sans-serif" font-size="7.2" lengthAdjust="spacing" textLength="15.6" x="320.7" y="770.3771">c = p</text><polygon fill="#F1F1F1" points="289.8,314.5711,367.2,314.5711,374.4,321.7711,367.2,328.9711,289.8,328.9711,282.6,321.7711,289.8,314.5711" style="stroke:#181818;stroke-width:0.3;"/><text fill="#000000" font-family="sans-serif" font-size="6.6" lengthAdjust="spacing" textLength="77.4" x="289.8" y="324.5039">Log y - 1 exists) then (true</text><text fill="#000000" font-family="sans-serif" font-size="6.6" lengthAdjust="spacing" textLength="14.4" x="268.2" y="320.1146">false</text><path d="M199.8,800.7979 L199.8,827.5471 L297.6,827.5471 L297.6,806.7979 L291.6,800.7979 L199.8,800.7979 " fill="#FEFFDD" style="stroke:#181818;stroke-width:0.3;"/><path d="M291.6,800.7979 L291.6,806.7979 L297.6,806.7979 L291.6,800.7979 " fill="#FEFFDD" style="stroke:#181818;stroke-width:0.3;"/><text fill="#000000" font-family="sans-serif" font-size="7.8" lengthAdjust="spacing" textLength="85.2" x="203.4" y="812.2148">All claims in the backlog</text><text fill="#000000" font-family="sans-serif" font-size="7.8" lengthAdjust="spacing" textLength="65.4" x="203.4" y="822.5895">are processed now</text><rect fill="#F1F1F1" height="21.5766" rx="7.5" ry="7.5" style="stroke:#181818;stroke-width:0.3;" width="37.8" x="309.6" y="803.3842"/><text fill="#000000" font-family="sans-serif" font-size="7.2" lengthAdjust="spacing" textLength="25.8" x="315.6" y="817.1537">f = p + 1</text><rect fill="#F1F1F1" height="21.5766" rx="7.5" ry="7.5" style="stroke:#181818;stroke-width:0.3;" width="79.2" x="288.9" y="873.9691"/><text fill="#000000" font-family="sans-serif" font-size="7.2" lengthAdjust="spacing" textLength="67.2" x="294.9" y="887.7387">Get Log with seqno f</text><rect fill="#FF0000" height="21.5766" rx="7.5" ry="7.5" style="stroke:#181818;stroke-width:0.3;" width="44.4" x="306.3" y="966.7242"/><text fill="#000000" font-family="sans-serif" font-size="7.2" lengthAdjust="spacing" textLength="32.4" x="312.3" y="980.4938">Fire Node</text><ellipse cx="328.5" cy="1015.9008" fill="none" rx="6.6" ry="6.6" style="stroke:#222222;stroke-width:0.6;"/><ellipse cx="328.5" cy="1015.9008" fill="#222222" rx="3.6" ry="3.6" style="stroke:#111111;stroke-width:0.6;"/><polygon fill="#F1F1F1" points="301.2,937.135,355.8,937.135,363,944.335,355.8,951.535,301.2,951.535,294,944.335,301.2,937.135" style="stroke:#181818;stroke-width:0.3;"/><text fill="#000000" font-family="sans-serif" font-size="6.6" lengthAdjust="spacing" textLength="11.4" x="330.9" y="958.657">true</text><text fill="#000000" font-family="sans-serif" font-size="6.6" lengthAdjust="spacing" textLength="54.6" x="301.2" y="947.0678">Node has all inputs</text><rect fill="#F1F1F1" height="21.5766" rx="7.5" ry="7.5" style="stroke:#181818;stroke-width:0.3;" width="117" x="270" y="1047.7008"/><text fill="#000000" font-family="sans-serif" font-size="7.2" lengthAdjust="spacing" textLength="105" x="276" y="1061.4703">Create Partial Log (id i, seqno y)</text><polygon fill="#F1F1F1" points="292.2,907.5457,364.8,907.5457,372,914.7457,364.8,921.9457,292.2,921.9457,285,914.7457,292.2,907.5457" style="stroke:#181818;stroke-width:0.3;"/><text fill="#000000" font-family="sans-serif" font-size="6.6" lengthAdjust="spacing" textLength="11.4" x="330.9" y="929.0678">true</text><text fill="#000000" font-family="sans-serif" font-size="6.6" lengthAdjust="spacing" textLength="72.6" x="292.2" y="917.4785">Log has Id i and is CLAIM</text><polygon fill="#F1F1F1" points="328.5,1081.2773,335.7,1088.4773,328.5,1095.6773,321.3,1088.4773,328.5,1081.2773" style="stroke:#181818;stroke-width:0.3;"/><path d="M210.6,1110.2783 L210.6,1126.6529 L298.8,1126.6529 L298.8,1116.2783 L292.8,1110.2783 L210.6,1110.2783 " fill="#FEFFDD" style="stroke:#181818;stroke-width:0.3;"/><path d="M292.8,1110.2783 L292.8,1116.2783 L298.8,1116.2783 L292.8,1110.2783 " fill="#FEFFDD" style="stroke:#181818;stroke-width:0.3;"/><text fill="#000000" font-family="sans-serif" font-size="7.8" lengthAdjust="spacing" textLength="75.6" x="214.2" y="1121.6953">End of partial creation</text><rect fill="#F1F1F1" height="21.5766" rx="7.5" ry="7.5" style="stroke:#181818;stroke-width:0.3;" width="35.4" x="310.8" y="1107.6773"/><text fill="#000000" font-family="sans-serif" font-size="7.2" lengthAdjust="spacing" textLength="23.4" x="316.8" y="1121.4469">f = f + 1</text><polygon fill="#F1F1F1" points="299.4,839.5471,357.6,839.5471,364.8,846.7471,357.6,853.9471,299.4,853.9471,292.2,846.7471,299.4,839.5471" style="stroke:#181818;stroke-width:0.3;"/><text fill="#000000" font-family="sans-serif" font-size="6.6" lengthAdjust="spacing" textLength="11.4" x="330.9" y="861.0691">true</text><text fill="#000000" font-family="sans-serif" font-size="6.6" lengthAdjust="spacing" textLength="58.2" x="299.4" y="849.4799">f != LatestLogSeqno</text><rect fill="#FFFF00" height="21.5766" rx="7.5" ry="7.5" style="stroke:#181818;stroke-width:0.3;" width="79.8" x="288.6" y="1154.4539"/><text fill="#000000" font-family="sans-serif" font-size="7.2" lengthAdjust="spacing" textLength="67.8" x="294.6" y="1168.2234">Create WAITING Log</text><ellipse cx="328.5" cy="1194.6305" fill="none" rx="6.6" ry="6.6" style="stroke:#222222;stroke-width:0.6;"/><ellipse cx="328.5" cy="1194.6305" fill="#222222" rx="3.6" ry="3.6" style="stroke:#111111;stroke-width:0.6;"/><polygon fill="#F1F1F1" points="258.9,145.3277,398.1,145.3277,405.3,152.5277,398.1,159.7277,258.9,159.7277,251.7,152.5277,258.9,145.3277" style="stroke:#181818;stroke-width:0.3;"/><text fill="#000000" font-family="sans-serif" font-size="6.6" lengthAdjust="spacing" textLength="11.4" x="330.9" y="166.8498">true</text><text fill="#000000" font-family="sans-serif" font-size="6.6" lengthAdjust="spacing" textLength="139.2" x="258.9" y="155.2605">Log has Id i and is WAITING [or PARTIAL_DONE]</text><polygon fill="#F1F1F1" points="193.05,87.3492,238.05,87.3492,245.25,94.5492,238.05,101.7492,193.05,101.7492,185.85,94.5492,193.05,87.3492" style="stroke:#181818;stroke-width:0.3;"/><text fill="#000000" font-family="sans-serif" font-size="6.6" lengthAdjust="spacing" textLength="11.4" x="217.95" y="108.8713">true</text><text fill="#000000" font-family="sans-serif" font-size="6.6" lengthAdjust="spacing" textLength="45" x="193.05" y="97.282">Log c - 1 exists</text><text fill="#000000" font-family="sans-serif" font-size="6.6" lengthAdjust="spacing" textLength="14.4" x="171.45" y="92.8928">false</text><ellipse cx="14.4" cy="122.7492" fill="none" rx="6.6" ry="6.6" style="stroke:#222222;stroke-width:0.6;"/><ellipse cx="14.4" cy="122.7492" fill="#222222" rx="3.6" ry="3.6" style="stroke:#111111;stroke-width:0.6;"/><line style="stroke:#181818;stroke-width:0.6;" x1="215.55" x2="215.55" y1="41.7727" y2="53.7727"/><polygon fill="#181818" points="213.15,47.7727,215.55,53.7727,217.95,47.7727,215.55,50.1727" style="stroke:#181818;stroke-width:0.6;"/><line style="stroke:#181818;stroke-width:0.6;" x1="102.6" x2="102.6" y1="166.9043" y2="187.9043"/><polygon fill="#181818" points="100.2,181.9043,102.6,187.9043,105,181.9043,102.6,184.3043" style="stroke:#181818;stroke-width:0.6;"/><line style="stroke:#181818;stroke-width:0.6;" x1="328.5" x2="328.5" y1="226.0828" y2="242.5945"/><polygon fill="#181818" points="326.1,236.5945,328.5,242.5945,330.9,236.5945,328.5,238.9945" style="stroke:#181818;stroke-width:0.6;"/><line style="stroke:#181818;stroke-width:0.6;" x1="328.5" x2="328.5" y1="189.317" y2="204.5063"/><polygon fill="#181818" points="326.1,198.5063,328.5,204.5063,330.9,198.5063,328.5,200.9063" style="stroke:#181818;stroke-width:0.6;"/><line style="stroke:#181818;stroke-width:0.6;" x1="363" x2="370.2" y1="182.117" y2="182.117"/><polygon fill="#181818" points="367.8,224.5945,370.2,230.5945,372.6,224.5945,370.2,226.9945" style="stroke:#181818;stroke-width:0.6;"/><line style="stroke:#181818;stroke-width:0.6;" x1="370.2" x2="370.2" y1="182.117" y2="268.9945"/><line style="stroke:#181818;stroke-width:0.6;" x1="370.2" x2="328.5" y1="268.9945" y2="268.9945"/><line style="stroke:#181818;stroke-width:0.6;" x1="328.5" x2="328.5" y1="268.9945" y2="280.9945"/><polygon fill="#181818" points="326.1,274.9945,328.5,280.9945,330.9,274.9945,328.5,277.3945" style="stroke:#181818;stroke-width:0.6;"/><line style="stroke:#181818;stroke-width:0.6;" x1="328.5" x2="328.5" y1="362.5477" y2="374.5477"/><polygon fill="#181818" points="326.1,368.5477,328.5,374.5477,330.9,368.5477,328.5,370.9477" style="stroke:#181818;stroke-width:0.6;"/><line style="stroke:#181818;stroke-width:0.6;" x1="328.5" x2="328.5" y1="396.1242" y2="408.1242"/><polygon fill="#181818" points="326.1,402.1242,328.5,408.1242,330.9,402.1242,328.5,404.5242" style="stroke:#181818;stroke-width:0.6;"/><line style="stroke:#181818;stroke-width:0.6;" x1="328.5" x2="328.5" y1="590.4545" y2="611.4545"/><polygon fill="#181818" points="326.1,605.4545,328.5,611.4545,330.9,605.4545,328.5,607.8545" style="stroke:#181818;stroke-width:0.6;"/><line style="stroke:#181818;stroke-width:0.6;" x1="328.5" x2="328.5" y1="553.6887" y2="568.8779"/><polygon fill="#181818" points="326.1,562.8779,328.5,568.8779,330.9,562.8779,328.5,565.2779" style="stroke:#181818;stroke-width:0.6;"/><line style="stroke:#181818;stroke-width:0.6;" x1="363" x2="370.2" y1="546.4887" y2="546.4887"/><polygon fill="#181818" points="367.8,588.9662,370.2,594.9662,372.6,588.9662,370.2,591.3662" style="stroke:#181818;stroke-width:0.6;"/><line style="stroke:#181818;stroke-width:0.6;" x1="370.2" x2="370.2" y1="546.4887" y2="637.8545"/><line style="stroke:#181818;stroke-width:0.6;" x1="370.2" x2="328.5" y1="637.8545" y2="637.8545"/><line style="stroke:#181818;stroke-width:0.6;" x1="328.5" x2="328.5" y1="637.8545" y2="649.8545"/><polygon fill="#181818" points="326.1,643.8545,328.5,649.8545,330.9,643.8545,328.5,646.2545" style="stroke:#181818;stroke-width:0.6;"/><line style="stroke:#181818;stroke-width:0.6;" x1="328.5" x2="328.5" y1="524.0994" y2="539.2887"/><polygon fill="#181818" points="326.1,533.2887,328.5,539.2887,330.9,533.2887,328.5,535.6887" style="stroke:#181818;stroke-width:0.6;"/><line style="stroke:#181818;stroke-width:0.6;" x1="372" x2="393" y1="516.8994" y2="516.8994"/><polygon fill="#181818" points="390.6,606.6545,393,612.6545,395.4,606.6545,393,609.0545" style="stroke:#181818;stroke-width:0.6;"/><line style="stroke:#181818;stroke-width:0.6;" x1="393" x2="393" y1="516.8994" y2="690.6311"/><line style="stroke:#181818;stroke-width:0.6;" x1="393" x2="335.7" y1="690.6311" y2="690.6311"/><polygon fill="#181818" points="341.7,688.2311,335.7,690.6311,341.7,693.0311,339.3,690.6311" style="stroke:#181818;stroke-width:0.6;"/><line style="stroke:#181818;stroke-width:0.6;" x1="328.5" x2="328.5" y1="671.4311" y2="683.4311"/><polygon fill="#181818" points="326.1,677.4311,328.5,683.4311,330.9,677.4311,328.5,679.8311" style="stroke:#181818;stroke-width:0.6;"/><line style="stroke:#181818;stroke-width:0.6;" x1="328.5" x2="328.5" y1="497.6994" y2="509.6994"/><polygon fill="#181818" points="326.1,503.6994,328.5,509.6994,330.9,503.6994,328.5,506.0994" style="stroke:#181818;stroke-width:0.6;"/><line style="stroke:#181818;stroke-width:0.6;" x1="328.5" x2="328.5" y1="697.8311" y2="709.8311"/><polygon fill="#181818" points="326.1,703.8311,328.5,709.8311,330.9,703.8311,328.5,706.2311" style="stroke:#181818;stroke-width:0.6;"/><line style="stroke:#181818;stroke-width:0.6;" x1="328.5" x2="328.5" y1="456.1008" y2="476.1229"/><polygon fill="#181818" points="326.1,470.1229,328.5,476.1229,330.9,470.1229,328.5,472.5229" style="stroke:#181818;stroke-width:0.6;"/><line style="stroke:#181818;stroke-width:0.6;" x1="328.5" x2="328.5" y1="731.4076" y2="737.4076"/><line style="stroke:#181818;stroke-width:0.6;" x1="328.5" x2="407.4" y1="737.4076" y2="737.4076"/><polygon fill="#181818" points="405,607.0652,407.4,601.0652,409.8,607.0652,407.4,604.6652" style="stroke:#181818;stroke-width:0.6;"/><line style="stroke:#181818;stroke-width:0.6;" x1="407.4" x2="407.4" y1="448.9008" y2="737.4076"/><line style="stroke:#181818;stroke-width:0.6;" x1="407.4" x2="342.9" y1="448.9008" y2="448.9008"/><polygon fill="#181818" points="348.9,446.5008,342.9,448.9008,348.9,451.3008,346.5,448.9008" style="stroke:#181818;stroke-width:0.6;"/><line style="stroke:#181818;stroke-width:0.6;" x1="314.1" x2="256.8" y1="448.9008" y2="448.9008"/><polygon fill="#181818" points="254.4,598.6652,256.8,604.6652,259.2,598.6652,256.8,601.0652" style="stroke:#181818;stroke-width:0.6;"/><line style="stroke:#181818;stroke-width:0.6;" x1="256.8" x2="256.8" y1="448.9008" y2="744.6076"/><line style="stroke:#181818;stroke-width:0.6;" x1="256.8" x2="328.5" y1="744.6076" y2="744.6076"/><line style="stroke:#181818;stroke-width:0.6;" x1="328.5" x2="328.5" y1="744.6076" y2="756.6076"/><polygon fill="#181818" points="326.1,750.6076,328.5,756.6076,330.9,750.6076,328.5,753.0076" style="stroke:#181818;stroke-width:0.6;"/><line style="stroke:#181818;stroke-width:0.6;" x1="328.5" x2="328.5" y1="429.7008" y2="441.7008"/><polygon fill="#181818" points="326.1,435.7008,328.5,441.7008,330.9,435.7008,328.5,438.1008" style="stroke:#181818;stroke-width:0.6;"/><line style="stroke:#181818;stroke-width:0.6;" x1="328.5" x2="328.5" y1="328.9711" y2="340.9711"/><polygon fill="#181818" points="326.1,334.9711,328.5,340.9711,330.9,334.9711,328.5,337.3711" style="stroke:#181818;stroke-width:0.6;"/><line style="stroke:#181818;stroke-width:0.6;" x1="328.5" x2="328.5" y1="778.1842" y2="784.1842"/><line style="stroke:#181818;stroke-width:0.6;" x1="328.5" x2="414.6" y1="784.1842" y2="784.1842"/><polygon fill="#181818" points="412.2,557.2887,414.6,551.2887,417,557.2887,414.6,554.8887" style="stroke:#181818;stroke-width:0.6;"/><line style="stroke:#181818;stroke-width:0.6;" x1="414.6" x2="414.6" y1="321.7711" y2="784.1842"/><line style="stroke:#181818;stroke-width:0.6;" x1="414.6" x2="374.4" y1="321.7711" y2="321.7711"/><polygon fill="#181818" points="380.4,319.3711,374.4,321.7711,380.4,324.1711,378,321.7711" style="stroke:#181818;stroke-width:0.6;"/><line style="stroke:#181818;stroke-width:0.6;" x1="282.6" x2="242.4" y1="321.7711" y2="321.7711"/><polygon fill="#181818" points="240,548.8887,242.4,554.8887,244.8,548.8887,242.4,551.2887" style="stroke:#181818;stroke-width:0.6;"/><line style="stroke:#181818;stroke-width:0.6;" x1="242.4" x2="242.4" y1="321.7711" y2="791.3842"/><line style="stroke:#181818;stroke-width:0.6;" x1="242.4" x2="328.5" y1="791.3842" y2="791.3842"/><line style="stroke:#181818;stroke-width:0.6;" x1="328.5" x2="328.5" y1="791.3842" y2="803.3842"/><polygon fill="#181818" points="326.1,797.3842,328.5,803.3842,330.9,797.3842,328.5,799.7842" style="stroke:#181818;stroke-width:0.6;"/><line style="stroke:#181818;stroke-width:0.6;" x1="328.5" x2="328.5" y1="302.5711" y2="314.5711"/><polygon fill="#181818" points="326.1,308.5711,328.5,314.5711,330.9,308.5711,328.5,310.9711" style="stroke:#181818;stroke-width:0.6;"/><line style="stroke:#181818;stroke-width:0.6;" x1="328.5" x2="328.5" y1="988.3008" y2="1009.3008"/><polygon fill="#181818" points="326.1,1003.3008,328.5,1009.3008,330.9,1003.3008,328.5,1005.7008" style="stroke:#181818;stroke-width:0.6;"/><line style="stroke:#181818;stroke-width:0.6;" x1="328.5" x2="328.5" y1="951.535" y2="966.7242"/><polygon fill="#181818" points="326.1,960.7242,328.5,966.7242,330.9,960.7242,328.5,963.1242" style="stroke:#181818;stroke-width:0.6;"/><line style="stroke:#181818;stroke-width:0.6;" x1="363" x2="370.2" y1="944.335" y2="944.335"/><polygon fill="#181818" points="367.8,986.8125,370.2,992.8125,372.6,986.8125,370.2,989.2125" style="stroke:#181818;stroke-width:0.6;"/><line style="stroke:#181818;stroke-width:0.6;" x1="370.2" x2="370.2" y1="944.335" y2="1035.7008"/><line style="stroke:#181818;stroke-width:0.6;" x1="370.2" x2="328.5" y1="1035.7008" y2="1035.7008"/><line style="stroke:#181818;stroke-width:0.6;" x1="328.5" x2="328.5" y1="1035.7008" y2="1047.7008"/><polygon fill="#181818" points="326.1,1041.7008,328.5,1047.7008,330.9,1041.7008,328.5,1044.1008" style="stroke:#181818;stroke-width:0.6;"/><line style="stroke:#181818;stroke-width:0.6;" x1="328.5" x2="328.5" y1="921.9457" y2="937.135"/><polygon fill="#181818" points="326.1,931.135,328.5,937.135,330.9,931.135,328.5,933.535" style="stroke:#181818;stroke-width:0.6;"/><line style="stroke:#181818;stroke-width:0.6;" x1="372" x2="393" y1="914.7457" y2="914.7457"/><polygon fill="#181818" points="390.6,1004.5008,393,1010.5008,395.4,1004.5008,393,1006.9008" style="stroke:#181818;stroke-width:0.6;"/><line style="stroke:#181818;stroke-width:0.6;" x1="393" x2="393" y1="914.7457" y2="1088.4773"/><line style="stroke:#181818;stroke-width:0.6;" x1="393" x2="335.7" y1="1088.4773" y2="1088.4773"/><polygon fill="#181818" points="341.7,1086.0773,335.7,1088.4773,341.7,1090.8773,339.3,1088.4773" style="stroke:#181818;stroke-width:0.6;"/><line style="stroke:#181818;stroke-width:0.6;" x1="328.5" x2="328.5" y1="1069.2773" y2="1081.2773"/><polygon fill="#181818" points="326.1,1075.2773,328.5,1081.2773,330.9,1075.2773,328.5,1077.6773" style="stroke:#181818;stroke-width:0.6;"/><line style="stroke:#181818;stroke-width:0.6;" x1="328.5" x2="328.5" y1="895.5457" y2="907.5457"/><polygon fill="#181818" points="326.1,901.5457,328.5,907.5457,330.9,901.5457,328.5,903.9457" style="stroke:#181818;stroke-width:0.6;"/><line style="stroke:#181818;stroke-width:0.6;" x1="328.5" x2="328.5" y1="1095.6773" y2="1107.6773"/><polygon fill="#181818" points="326.1,1101.6773,328.5,1107.6773,330.9,1101.6773,328.5,1104.0773" style="stroke:#181818;stroke-width:0.6;"/><line style="stroke:#181818;stroke-width:0.6;" x1="328.5" x2="328.5" y1="853.9471" y2="873.9691"/><polygon fill="#181818" points="326.1,867.9691,328.5,873.9691,330.9,867.9691,328.5,870.3691" style="stroke:#181818;stroke-width:0.6;"/><line style="stroke:#181818;stroke-width:0.6;" x1="328.5" x2="328.5" y1="1129.2539" y2="1135.2539"/><line style="stroke:#181818;stroke-width:0.6;" x1="328.5" x2="407.4" y1="1135.2539" y2="1135.2539"/><polygon fill="#181818" points="405,1004.9115,407.4,998.9115,409.8,1004.9115,407.4,1002.5115" style="stroke:#181818;stroke-width:0.6;"/><line style="stroke:#181818;stroke-width:0.6;" x1="407.4" x2="407.4" y1="846.7471" y2="1135.2539"/><line style="stroke:#181818;stroke-width:0.6;" x1="407.4" x2="364.8" y1="846.7471" y2="846.7471"/><polygon fill="#181818" points="370.8,844.3471,364.8,846.7471,370.8,849.1471,368.4,846.7471" style="stroke:#181818;stroke-width:0.6;"/><line style="stroke:#181818;stroke-width:0.6;" x1="292.2" x2="203.4" y1="846.7471" y2="846.7471"/><polygon fill="#181818" points="201,996.5115,203.4,1002.5115,205.8,996.5115,203.4,998.9115" style="stroke:#181818;stroke-width:0.6;"/><line style="stroke:#181818;stroke-width:0.6;" x1="203.4" x2="203.4" y1="846.7471" y2="1142.4539"/><line style="stroke:#181818;stroke-width:0.6;" x1="203.4" x2="328.5" y1="1142.4539" y2="1142.4539"/><line style="stroke:#181818;stroke-width:0.6;" x1="328.5" x2="328.5" y1="1142.4539" y2="1154.4539"/><polygon fill="#181818" points="326.1,1148.4539,328.5,1154.4539,330.9,1148.4539,328.5,1150.8539" style="stroke:#181818;stroke-width:0.6;"/><line style="stroke:#181818;stroke-width:0.6;" x1="328.5" x2="328.5" y1="824.9607" y2="839.5471"/><polygon fill="#181818" points="326.1,833.5471,328.5,839.5471,330.9,833.5471,328.5,835.9471" style="stroke:#181818;stroke-width:0.6;"/><line style="stroke:#181818;stroke-width:0.6;" x1="328.5" x2="328.5" y1="1176.0305" y2="1188.0305"/><polygon fill="#181818" points="326.1,1182.0305,328.5,1188.0305,330.9,1182.0305,328.5,1184.4305" style="stroke:#181818;stroke-width:0.6;"/><line style="stroke:#181818;stroke-width:0.6;" x1="328.5" x2="328.5" y1="159.7277" y2="174.917"/><polygon fill="#181818" points="326.1,168.917,328.5,174.917,330.9,168.917,328.5,171.317" style="stroke:#181818;stroke-width:0.6;"/><line style="stroke:#181818;stroke-width:0.6;" x1="405.3" x2="441" y1="152.5277" y2="152.5277"/><line style="stroke:#181818;stroke-width:0.6;" x1="441" x2="441" y1="94.5492" y2="152.5277"/><line style="stroke:#181818;stroke-width:0.6;" x1="441" x2="245.25" y1="94.5492" y2="94.5492"/><polygon fill="#181818" points="251.25,92.1492,245.25,94.5492,251.25,96.9492,248.85,94.5492" style="stroke:#181818;stroke-width:0.6;"/><line style="stroke:#181818;stroke-width:0.6;" x1="148.35" x2="102.6" y1="132.1277" y2="132.1277"/><line style="stroke:#181818;stroke-width:0.6;" x1="102.6" x2="102.6" y1="132.1277" y2="145.3277"/><polygon fill="#181818" points="100.2,139.3277,102.6,145.3277,105,139.3277,102.6,141.7277" style="stroke:#181818;stroke-width:0.6;"/><line style="stroke:#181818;stroke-width:0.6;" x1="282.75" x2="328.5" y1="132.1277" y2="132.1277"/><line style="stroke:#181818;stroke-width:0.6;" x1="328.5" x2="328.5" y1="132.1277" y2="145.3277"/><polygon fill="#181818" points="326.1,139.3277,328.5,145.3277,330.9,139.3277,328.5,141.7277" style="stroke:#181818;stroke-width:0.6;"/><line style="stroke:#181818;stroke-width:0.6;" x1="215.55" x2="215.55" y1="101.7492" y2="124.9277"/><polygon fill="#181818" points="213.15,118.9277,215.55,124.9277,217.95,118.9277,215.55,121.3277" style="stroke:#181818;stroke-width:0.6;"/><line style="stroke:#181818;stroke-width:0.6;" x1="185.85" x2="14.4" y1="94.5492" y2="94.5492"/><line style="stroke:#181818;stroke-width:0.6;" x1="14.4" x2="14.4" y1="94.5492" y2="116.1492"/><polygon fill="#181818" points="12,110.1492,14.4,116.1492,16.8,110.1492,14.4,112.5492" style="stroke:#181818;stroke-width:0.6;"/><line style="stroke:#181818;stroke-width:0.6;" x1="215.55" x2="215.55" y1="75.3492" y2="87.3492"/><polygon fill="#181818" points="213.15,81.3492,215.55,87.3492,217.95,81.3492,215.55,83.7492" style="stroke:#181818;stroke-width:0.6;"/><!--MD5=[75600a9c9d0a9797a688ab29923182ed]
@startuml
title N Arity Handler
start
:Create Claim Log (id i, seqno c);
while (Log c - 1 exists) is (true)
    if (Log has Id i and is another Claim or Partial) then (true)
        #yellow:Exit Handler (another Handler in progress);
        stop
    else (false)
        if (Log has Id i and is WAITING [or PARTIAL_DONE]) then (true)
            if (Node has all inputs) then (true)
                #red:Fire Node;
                stop
            endif
                :Create Partial Log (id i, seqno y);
                while (Log y - 1 exists) then (true)
                    :set: p = y;
                    :set: f = y - 1;
                    :set: y = invalid;
                    while (f > c) is (true)
                        :Get Log with seqno f;
                        if (Log has Id i and is CLAIM) then (true)
                            if (Node has all inputs) then (true)
                                #red:Fire Node;
                                stop
                            endif
                            :Create Partial Log (id i, seqno y);
                        endif
                        :f = f - 1;
                    endwhile (false)
                    :c = p;
                endwhile (false)
            :f = p + 1;
            floating note
                All claims in the backlog
                are processed now
            endnote
            while (f != LatestLogSeqno) is (true)
                :Get Log with seqno f;
                if (Log has Id i and is CLAIM) then (true)
                    if (Node has all inputs) then (true)
                        #red:Fire Node;
                        stop
                    endif
                    :Create Partial Log (id i, seqno y);
              endif
              :f = f + 1;
            endwhile
            floating note
                End of partial creation
            endnote
            #yellow:Create WAITING Log;
            stop
        endif
    endif
endwhile (false)
stop
@enduml

PlantUML version 1.2022.13(Sat Nov 19 14:22:17 CET 2022)
(GPL source distribution)
Java Runtime: OpenJDK Runtime Environment
JVM: OpenJDK 64-Bit Server VM
Default Encoding: Cp1252
Language: de
Country: DE
--></g></svg>